<svg width="106" height="57" viewBox="0 0 106 57" fill="none" xmlns="http://www.w3.org/2000/svg">
<path d="M42.2297 38.5527V21.0993H50.2756C52.1901 21.0993 53.6673 21.5037 54.7071 22.3124C55.7468 23.1211 56.2667 24.2269 56.2667 25.6298C56.2667 26.6696 55.9531 27.5526 55.326 28.2788C54.7153 29.0049 53.8736 29.4918 52.8008 29.7394V29.3433C54.0551 29.5578 55.0206 30.0365 55.6973 30.7792C56.3905 31.5054 56.7371 32.4544 56.7371 33.6262C56.7371 35.1776 56.1842 36.3907 55.0784 37.2654C53.9891 38.1236 52.479 38.5527 50.548 38.5527H42.2297ZM45.9185 35.681H50.0776C51.0348 35.681 51.7693 35.4994 52.2809 35.1363C52.7925 34.7732 53.0484 34.1956 53.0484 33.4034C53.0484 32.5947 52.7925 32.017 52.2809 31.6704C51.7693 31.3073 51.0348 31.1258 50.0776 31.1258H45.9185V35.681ZM45.9185 28.2788H49.5824C50.5892 28.2788 51.3319 28.0972 51.8105 27.7341C52.2892 27.371 52.5285 26.8264 52.5285 26.1002C52.5285 25.3905 52.2892 24.8541 51.8105 24.491C51.3319 24.1279 50.5892 23.9464 49.5824 23.9464H45.9185V28.2788ZM58.3717 38.5527L66.3928 21.0993H69.5864L77.7066 38.5527H73.795L71.6907 33.7004L73.2009 34.765H62.8279L64.3628 33.7004L62.2585 38.5527H58.3717ZM67.9772 25.1594L64.7836 32.7349L64.1152 31.7942H71.9135L71.3441 32.7349L68.0763 25.1594H67.9772ZM78.1882 38.5527L86.2094 21.0993H89.4029L97.5231 38.5527H93.6116L91.5073 33.7004L93.0174 34.765H82.6444L84.1793 33.7004L82.075 38.5527H78.1882ZM87.7938 25.1594L84.6002 32.7349L83.9317 31.7942H91.7301L91.1607 32.7349L87.8928 25.1594H87.7938ZM100.06 38.5527V21.0993H103.922V38.5527H100.06Z" fill="white"/>
<path d="M13.5579 14.7026C13.5579 13.8332 14.262 13.1284 15.1306 13.1284C15.9992 13.1284 16.7033 13.8332 16.7033 14.7026C16.7033 15.5719 15.9992 16.2767 15.1306 16.2767C14.262 16.2767 13.5579 15.5719 13.5579 14.7026Z" fill="white"/>
<path d="M26.9682 26.0164C27.4516 26.8124 28.4881 27.0654 29.2833 26.5816C30.0785 26.0978 30.3313 25.0603 29.848 24.2643L16.9057 2.9523C16.1577 1.72061 14.3687 1.72918 13.6326 2.96803L1.17168 23.9384C0.414569 25.2125 1.33191 26.8269 2.81299 26.8269L15.0471 26.8269C16.1018 26.8269 16.9568 25.9712 16.9568 24.9155V19.2023C16.9568 18.2708 16.2024 17.5157 15.2718 17.5157C14.3412 17.5157 13.5868 18.2708 13.5868 19.2023V23.4538H5.38066L15.2875 6.78168L26.9682 26.0164Z" fill="white"/>
<g opacity="0.6">
<path d="M1.8406 29.5239H4.13616C4.17807 29.5239 4.2168 29.5464 4.23777 29.5829L14.5853 47.5783L17.4579 52.5742C17.4789 52.6107 17.4789 52.6556 17.4579 52.6922L16.3086 54.688C15.9469 55.3161 15.0445 55.3159 14.6832 54.6876L12.5889 51.0453L1.02772 30.9392C0.666103 30.3103 1.11777 29.5239 1.8406 29.5239Z" fill="white"/>
<path fill-rule="evenodd" clip-rule="evenodd" d="M12.4416 29.5239C12.3512 29.5239 12.2948 29.6222 12.34 29.7008L19.4798 42.1178C19.501 42.1546 19.501 42.2001 19.4798 42.2369L16.4424 47.5193C16.4214 47.5558 16.4214 47.6008 16.4424 47.6373L18.3032 50.8688C18.3484 50.9473 18.4612 50.9473 18.5064 50.8687L29.966 30.9392C30.3276 30.3103 29.876 29.5239 29.1531 29.5239H12.4416ZM24.4831 32.8256C24.6643 32.8256 24.7774 33.0238 24.6864 33.182L21.7124 38.3542C21.6218 38.5118 21.3963 38.5118 21.3057 38.3542L18.3316 33.182C18.2407 33.0238 18.3538 32.8256 18.535 32.8256H24.4831Z" fill="white"/>
</g>
<g opacity="0.6">
<rect x="25.5475" y="2.03574" width="4.5" height="4.5" rx="2.25" fill="white"/>
<rect x="25.5475" y="2.03574" width="4.5" height="4.5" rx="2.25" stroke="#141415" stroke-width="0.3"/>
<path d="M26.8809 5.31459V3.25659H27.9639C28.1159 3.25659 28.2419 3.28259 28.3419 3.33459C28.4419 3.38659 28.5169 3.46059 28.5669 3.55659C28.6169 3.65259 28.6419 3.76559 28.6419 3.89559C28.6419 4.02959 28.6119 4.14859 28.5519 4.25259C28.4919 4.35459 28.4039 4.43159 28.2879 4.48359L28.7139 5.31459H28.2879L27.9099 4.54959H27.2709V5.31459H26.8809ZM27.2709 4.22259H27.9339C28.0339 4.22259 28.1109 4.19359 28.1649 4.13559C28.2189 4.07759 28.2459 3.99759 28.2459 3.89559C28.2459 3.82959 28.2339 3.77459 28.2099 3.73059C28.1859 3.68459 28.1509 3.64959 28.1049 3.62559C28.0589 3.60159 28.0019 3.58959 27.9339 3.58959H27.2709V4.22259Z" fill="#141415"/>
</g>
</svg>
